<?xml version="1.0" encoding="UTF-8"?>
<svg width="356px" height="503px" viewBox="0 0 356 503" version="1.1" xmlns="http://www.w3.org/2000/svg" xmlns:xlink="http://www.w3.org/1999/xlink">
    <!-- Generator: Sketch 40.1 (33804) - http://www.bohemiancoding.com/sketch -->
    <title>P</title>
    <desc>Created with Sketch.</desc>
    <defs></defs>
    <g id="Final" stroke="none" stroke-width="1" fill="none" fill-rule="evenodd">
        <g id="escher_black_lockup" transform="translate(-332.000000, -160.000000)" stroke="#FFFFFF" stroke-width="27.2159995">
            <g id="Group" transform="translate(220.000000, 159.000000)">
                <path d="M286.396042,223.784178 C286.396042,223.784178 319.634774,223.754005 342.022991,205.266004 C353.391574,195.877924 361.96231,181.730422 361.96231,160.410646 C361.96231,144.022028 356.897799,131.876157 349.391017,122.874654 C327.901067,97.1057101 298.953849,97.711458 286.396042,97.1057101 C273.838236,96.4999621 217.042681,97.1057101 217.042681,97.1057101 L217.042681,223.864039 L126.016393,223.784178 L126.016393,14.7087379 L295.354185,14.7087379 C320.205931,14.7087379 342.408417,18.178835 361.96231,25.1191332 C381.516202,32.0594315 398.083784,41.8431775 411.665552,54.4706647 C425.24732,67.0981518 435.698382,82.183435 443.019051,99.7269668 C450.33972,117.270499 454,136.741599 454,158.140852 C454,183.395821 449.665458,204.505578 440.996245,222.627468 C432.327031,240.749358 420.38296,255.931033 405.163674,268.172948 C389.944388,280.414863 372.172767,289.620259 351.848278,295.789413 C331.523788,301.958567 309.706594,305.043098 286.396042,305.043098 L217.042681,305.043098 L216.749855,478.384189 L126.016393,417.151785 L126.016393,305.043098 L216.749855,305.043098 L216.749855,223.864039 L286.396042,223.784178 Z" id="P"></path>
            </g>
        </g>
    </g>
</svg>