<?xml version="1.0" encoding="UTF-8"?>
<svg width="752px" height="1065px" viewBox="0 0 752 1065" version="1.1" xmlns="http://www.w3.org/2000/svg" xmlns:xlink="http://www.w3.org/1999/xlink">
    <!-- Generator: Sketch 40.1 (33804) - http://www.bohemiancoding.com/sketch -->
    <title>P</title>
    <desc>Created with Sketch.</desc>
    <defs></defs>
    <g id="Final" stroke="none" stroke-width="1" fill="none" fill-rule="evenodd">
        <g id="light_lockup" transform="translate(-647.000000, -291.000000)" stroke="#09091A" stroke-width="57.6">
            <g id="Group" transform="translate(440.000000, 320.000000)">
                <path d="M575.351448,442.521827 C575.351448,442.521827 645.58302,442.457963 692.888064,403.326902 C716.909241,383.456417 735.018725,353.512304 735.018725,308.387605 C735.018725,273.700026 724.317699,247.992496 708.45629,228.940227 C663.049232,174.398574 601.885388,175.680679 575.351448,174.398574 C548.817508,173.116469 428.811691,174.398574 428.811691,174.398574 L428.811691,442.690857 L236.478261,442.521827 L236.478261,0 L594.2795,0 C646.789842,0 693.702448,7.34468717 735.018725,22.0342818 C776.335001,36.7238765 811.341371,57.431814 840.038883,84.1587154 C868.736396,110.885617 890.818902,142.814604 906.287065,179.946635 C921.755228,217.078666 929.489193,258.290522 929.489193,303.583439 C929.489193,357.037229 920.33055,401.71741 902.012989,440.073574 C883.695428,478.429737 858.458278,510.562744 826.300781,536.473557 C794.143285,562.384369 756.592848,581.868192 713.648343,594.92561 C670.703839,607.983027 624.605335,614.511638 575.351448,614.511638 L428.811691,614.511638 L428.192968,981.399379 L236.478261,851.796998 L236.478261,614.511638 L428.192968,614.511638 L428.192968,442.690857 L575.351448,442.521827 Z" id="P"></path>
            </g>
        </g>
    </g>
</svg>