<?xml version="1.0" encoding="UTF-8"?>
<svg width="582px" height="722px" viewBox="0 0 582 722" version="1.1" xmlns="http://www.w3.org/2000/svg" xmlns:xlink="http://www.w3.org/1999/xlink">
    <!-- Generator: Sketch 40.1 (33804) - http://www.bohemiancoding.com/sketch -->
    <title>Group</title>
    <desc>Created with Sketch.</desc>
    <defs></defs>
    <g id="Page-7" stroke="none" stroke-width="1" fill="none" fill-rule="evenodd">
        <g id="vertical_white" transform="translate(-220.000000, -145.000000)">
            <g id="Group" transform="translate(220.000000, 160.000000)">
                <path d="M0,706.022766 L0,625.269019 L32.917714,625.269019 C37.7486655,625.269019 42.0646252,625.944775 45.8657227,627.296309 C49.6668201,628.647843 52.8874061,630.553102 55.5275773,633.012143 C58.1677484,635.471184 60.199339,638.408849 61.62241,641.825226 C63.045481,645.241604 63.7570058,649.03335 63.7570058,653.20058 L63.7570058,653.425834 C63.7570058,658.11866 62.9144106,662.229514 61.229195,665.75852 C59.5439793,669.287525 57.2221615,672.243961 54.2636719,674.627916 C51.3051822,677.011872 47.850542,678.804505 43.8996476,680.005868 C39.9487532,681.207232 35.7076908,681.807904 31.1763332,681.807904 L17.6946756,681.807904 L17.6946756,706.022766 L0,706.022766 Z M17.6946756,665.983774 L31.738069,665.983774 C36.1945281,665.983774 39.6491683,664.810585 42.1020932,662.464172 C44.5550182,660.117759 45.7814623,657.217636 45.7814623,653.763716 L45.7814623,653.538462 C45.7814623,649.558945 44.4988452,646.527425 41.9335725,644.44381 C39.3682998,642.360195 35.8574866,641.318404 31.4010275,641.318404 L17.6946756,641.318404 L17.6946756,665.983774 Z M89.1100119,706.022766 L123.65676,624.705882 L139.947096,624.705882 L174.493843,706.022766 L155.956564,706.022766 L148.597826,687.889777 L114.556641,687.889777 L107.197903,706.022766 L89.1100119,706.022766 Z M120.848081,672.234587 L142.250212,672.234587 L131.577233,646.048749 L120.848081,672.234587 Z M206.025943,706.022766 L206.025943,625.269019 L223.720618,625.269019 L223.720618,689.860754 L263.884723,689.860754 L263.884723,706.022766 L206.025943,706.022766 Z M296.371773,706.022766 L296.371773,625.269019 L315.470788,625.269019 L336.648225,659.451393 L357.825662,625.269019 L376.924677,625.269019 L376.924677,706.022766 L359.286175,706.022766 L359.286175,653.313207 L336.648225,687.777149 L336.198837,687.777149 L313.729407,653.651089 L313.729407,706.022766 L296.371773,706.022766 Z M415.366126,706.022766 L415.366126,625.269019 L476.089759,625.269019 L476.089759,641.093149 L432.948454,641.093149 L432.948454,657.480416 L470.92179,657.480416 L470.92179,673.248232 L432.948454,673.248232 L432.948454,690.198635 L476.707668,690.198635 L476.707668,706.022766 L415.366126,706.022766 Z M511.610182,706.022766 L511.610182,625.269019 L548.403872,625.269019 C558.590065,625.269019 566.416837,628.009588 571.884426,633.490809 C576.490682,638.10855 578.793775,644.246674 578.793775,651.905366 L578.793775,652.186934 C578.793775,658.719348 577.202207,664.040933 574.019022,668.151849 C570.835837,672.262764 566.679034,675.275514 561.548488,677.190187 L581.209239,706.022766 L560.481191,706.022766 L543.235904,680.174809 L543.011209,680.174809 L529.304857,680.174809 L529.304857,706.022766 L511.610182,706.022766 Z M529.304857,664.51962 L547.280401,664.51962 C551.661961,664.51962 555.02298,663.477828 557.363557,661.394213 C559.704134,659.310598 560.874406,656.541872 560.874406,653.087952 L560.874406,652.862698 C560.874406,649.033352 559.647961,646.152 557.195037,644.218556 C554.742112,642.285111 551.32492,641.318404 546.943359,641.318404 L529.304857,641.318404 L529.304857,664.51962 Z" id="PALMER" fill="#09091A"></path>
                <path d="M287.675724,221.260914 C287.675724,221.260914 322.79151,221.228982 346.444032,201.663451 C358.454621,191.728209 367.509362,176.756152 367.509362,154.193803 C367.509362,136.850013 362.158849,123.996248 354.228145,114.470114 C331.524616,87.199287 300.942694,87.8403395 287.675724,87.199287 C274.408754,86.5582344 214.405846,87.199287 214.405846,87.199287 L214.405846,221.345429 L118.23913,221.260914 L118.23913,0 L297.13975,0 C323.394921,0 346.851224,3.67234358 367.509362,11.0171409 C388.167501,18.3619383 405.670685,28.715907 420.019442,42.0793577 C434.368198,55.4428084 445.409451,71.407302 453.143533,89.9733175 C460.877614,108.539333 464.744597,129.145261 464.744597,151.791719 C464.744597,178.518615 460.165275,200.858705 451.006494,220.036787 C441.847714,239.214869 429.229139,255.281372 413.150391,268.236778 C397.071642,281.192185 378.296424,290.934096 356.824172,297.462805 C335.351919,303.991514 312.302667,307.255819 287.675724,307.255819 L214.405846,307.255819 L214.096484,490.69969 L118.23913,425.898499 L118.23913,307.255819 L214.096484,307.255819 L214.096484,221.345429 L287.675724,221.260914 Z" id="P" stroke="#09091A" stroke-width="28.8"></path>
            </g>
        </g>
    </g>
</svg>